<svg xmlns="http://www.w3.org/2000/svg" width="283" height="111" viewBox="0 0 283 111" fill="none">
  <path d="M-6.49023 0.414062H-5.36609V1.28001H-6.49023V0.414062Z" fill="#E1E4EA"/>
  <path d="M6.99955 0.414209H8.1237V1.28016H6.99955V0.414209Z" fill="#E1E4EA"/>
  <path d="M20.4893 0.414209H21.6135V1.28016H20.4893V0.414209Z" fill="#E1E4EA"/>
  <path d="M33.9791 0.414209H35.1033V1.28016H33.9791V0.414209Z" fill="#E1E4EA"/>
  <path d="M47.4689 0.414209H48.593V1.28016H47.4689V0.414209Z" fill="#E1E4EA"/>
  <path d="M60.9587 0.414209H62.0828V1.28016H60.9587V0.414209Z" fill="#E1E4EA"/>
  <path d="M74.4485 0.414209H75.5726V1.28016H74.4485V0.414209Z" fill="#E1E4EA"/>
  <path d="M87.9382 0.414209H89.0624V1.28016H87.9382V0.414209Z" fill="#E1E4EA"/>
  <path d="M101.428 0.414209H102.552V1.28016H101.428V0.414209Z" fill="#E1E4EA"/>
  <path d="M114.918 0.414209H116.042V1.28016H114.918V0.414209Z" fill="#E1E4EA"/>
  <path d="M128.408 0.414209H129.532V1.28016H128.408V0.414209Z" fill="#E1E4EA"/>
  <path d="M141.897 0.414209H143.022V1.28016H141.897V0.414209Z" fill="#E1E4EA"/>
  <path d="M155.387 0.414209H156.511V1.28016H155.387V0.414209Z" fill="#E1E4EA"/>
  <path d="M168.877 0.414209H170.001V1.28016H168.877V0.414209Z" fill="#E1E4EA"/>
  <path d="M182.367 0.414209H183.491V1.28016H182.367V0.414209Z" fill="#E1E4EA"/>
  <path d="M195.856 0.414209H196.981V1.28016H195.856V0.414209Z" fill="#E1E4EA"/>
  <path d="M209.346 0.414209H210.47V1.28016H209.346V0.414209Z" fill="#E1E4EA"/>
  <path d="M222.836 0.414209H223.96V1.28016H222.836V0.414209Z" fill="#E1E4EA"/>
  <path d="M236.326 0.414209H237.45V1.28016H236.326V0.414209Z" fill="#E1E4EA"/>
  <path d="M249.816 0.414209H250.94V1.28016H249.816V0.414209Z" fill="#E1E4EA"/>
  <path d="M263.305 0.414209H264.43V1.28016H263.305V0.414209Z" fill="#E1E4EA"/>
  <path d="M276.795 0.414209H277.919V1.28016H276.795V0.414209Z" fill="#E1E4EA"/>
  <path d="M290.285 0.414209H291.409V1.28016H290.285V0.414209Z" fill="#E1E4EA"/>
  <path d="M303.775 0.414209H304.899V1.28016H303.775V0.414209Z" fill="#E1E4EA"/>
  <path d="M317.265 0.414209H318.389V1.28016H317.265V0.414209Z" fill="#E1E4EA"/>
  <path d="M330.754 0.414209H331.878V1.28016H330.754V0.414209Z" fill="#E1E4EA"/>
  <path d="M344.244 0.414209H345.368V1.28016H344.244V0.414209Z" fill="#E1E4EA"/>
  <path d="M357.734 0.414209H358.858V1.28016H357.734V0.414209Z" fill="#E1E4EA"/>
  <path d="M371.224 0.414209H372.348V1.28016H371.224V0.414209Z" fill="#E1E4EA"/>
  <path d="M384.713 0.414209H385.838V1.28016H384.713V0.414209Z" fill="#E1E4EA"/>
  <path d="M398.203 0.414209H399.327V1.28016H398.203V0.414209Z" fill="#E1E4EA"/>
  <path d="M411.693 0.414209H412.817V1.28016H411.693V0.414209Z" fill="#E1E4EA"/>
  <path d="M-6.49023 10.8056H-5.36609V11.6716H-6.49023V10.8056Z" fill="#E1E4EA"/>
  <path d="M6.99955 10.8056H8.1237V11.6716H6.99955V10.8056Z" fill="#E1E4EA"/>
  <path d="M20.4893 10.8056H21.6135V11.6716H20.4893V10.8056Z" fill="#E1E4EA"/>
  <path d="M33.9791 10.8056H35.1033V11.6716H33.9791V10.8056Z" fill="#E1E4EA"/>
  <path d="M47.4689 10.8056H48.593V11.6716H47.4689V10.8056Z" fill="#E1E4EA"/>
  <path d="M60.9587 10.8056H62.0828V11.6716H60.9587V10.8056Z" fill="#E1E4EA"/>
  <path d="M74.4485 10.8056H75.5726V11.6716H74.4485V10.8056Z" fill="#E1E4EA"/>
  <path d="M87.9382 10.8056H89.0624V11.6716H87.9382V10.8056Z" fill="#E1E4EA"/>
  <path d="M101.428 10.8056H102.552V11.6716H101.428V10.8056Z" fill="#E1E4EA"/>
  <path d="M114.918 10.8056H116.042V11.6716H114.918V10.8056Z" fill="#E1E4EA"/>
  <path d="M128.408 10.8056H129.532V11.6716H128.408V10.8056Z" fill="#E1E4EA"/>
  <path d="M141.897 10.8056H143.021V11.6716H141.897V10.8056Z" fill="#E1E4EA"/>
  <path d="M155.387 10.8056H156.511V11.6716H155.387V10.8056Z" fill="#E1E4EA"/>
  <path d="M168.877 10.8056H170.001V11.6716H168.877V10.8056Z" fill="#E1E4EA"/>
  <path d="M182.367 10.8056H183.491V11.6716H182.367V10.8056Z" fill="#E1E4EA"/>
  <path d="M195.856 10.8056H196.981V11.6716H195.856V10.8056Z" fill="#E1E4EA"/>
  <path d="M209.346 10.8056H210.47V11.6716H209.346V10.8056Z" fill="#E1E4EA"/>
  <path d="M222.836 10.8056H223.96V11.6716H222.836V10.8056Z" fill="#E1E4EA"/>
  <path d="M236.326 10.8056H237.45V11.6716H236.326V10.8056Z" fill="#E1E4EA"/>
  <path d="M249.816 10.8056H250.94V11.6716H249.816V10.8056Z" fill="#E1E4EA"/>
  <path d="M263.305 10.8056H264.43V11.6716H263.305V10.8056Z" fill="#E1E4EA"/>
  <path d="M276.795 10.8056H277.919V11.6716H276.795V10.8056Z" fill="#E1E4EA"/>
  <path d="M290.285 10.8056H291.409V11.6716H290.285V10.8056Z" fill="#E1E4EA"/>
  <path d="M303.775 10.8056H304.899V11.6716H303.775V10.8056Z" fill="#E1E4EA"/>
  <path d="M317.264 10.8056H318.389V11.6716H317.264V10.8056Z" fill="#E1E4EA"/>
  <path d="M330.754 10.8056H331.878V11.6716H330.754V10.8056Z" fill="#E1E4EA"/>
  <path d="M344.244 10.8056H345.368V11.6716H344.244V10.8056Z" fill="#E1E4EA"/>
  <path d="M357.734 10.8056H358.858V11.6716H357.734V10.8056Z" fill="#E1E4EA"/>
  <path d="M371.224 10.8056H372.348V11.6716H371.224V10.8056Z" fill="#E1E4EA"/>
  <path d="M384.713 10.8056H385.838V11.6716H384.713V10.8056Z" fill="#E1E4EA"/>
  <path d="M398.203 10.8056H399.327V11.6716H398.203V10.8056Z" fill="#E1E4EA"/>
  <path d="M411.693 10.8056H412.817V11.6716H411.693V10.8056Z" fill="#E1E4EA"/>
  <path d="M-6.49023 21.1971H-5.36609V22.063H-6.49023V21.1971Z" fill="#E1E4EA"/>
  <path d="M6.99955 21.1971H8.1237V22.063H6.99955V21.1971Z" fill="#E1E4EA"/>
  <path d="M20.4893 21.1971H21.6135V22.063H20.4893V21.1971Z" fill="#E1E4EA"/>
  <path d="M33.9791 21.1971H35.1033V22.063H33.9791V21.1971Z" fill="#E1E4EA"/>
  <path d="M47.4689 21.1971H48.593V22.063H47.4689V21.1971Z" fill="#E1E4EA"/>
  <path d="M60.9587 21.1971H62.0828V22.063H60.9587V21.1971Z" fill="#E1E4EA"/>
  <path d="M74.4485 21.1971H75.5726V22.063H74.4485V21.1971Z" fill="#E1E4EA"/>
  <path d="M87.9382 21.1971H89.0624V22.063H87.9382V21.1971Z" fill="#E1E4EA"/>
  <path d="M101.428 21.1971H102.552V22.063H101.428V21.1971Z" fill="#E1E4EA"/>
  <path d="M114.918 21.1971H116.042V22.063H114.918V21.1971Z" fill="#E1E4EA"/>
  <path d="M128.408 21.1971H129.532V22.063H128.408V21.1971Z" fill="#E1E4EA"/>
  <path d="M141.897 21.1971H143.021V22.063H141.897V21.1971Z" fill="#E1E4EA"/>
  <path d="M155.387 21.1971H156.511V22.063H155.387V21.1971Z" fill="#E1E4EA"/>
  <path d="M168.877 21.1971H170.001V22.063H168.877V21.1971Z" fill="#E1E4EA"/>
  <path d="M182.367 21.1971H183.491V22.063H182.367V21.1971Z" fill="#E1E4EA"/>
  <path d="M195.856 21.1971H196.981V22.063H195.856V21.1971Z" fill="#E1E4EA"/>
  <path d="M209.346 21.1971H210.47V22.063H209.346V21.1971Z" fill="#E1E4EA"/>
  <path d="M222.836 21.1971H223.96V22.063H222.836V21.1971Z" fill="#E1E4EA"/>
  <path d="M236.326 21.1971H237.45V22.063H236.326V21.1971Z" fill="#E1E4EA"/>
  <path d="M249.816 21.1971H250.94V22.063H249.816V21.1971Z" fill="#E1E4EA"/>
  <path d="M263.305 21.1971H264.43V22.063H263.305V21.1971Z" fill="#E1E4EA"/>
  <path d="M276.795 21.1971H277.919V22.063H276.795V21.1971Z" fill="#E1E4EA"/>
  <path d="M290.285 21.1971H291.409V22.063H290.285V21.1971Z" fill="#E1E4EA"/>
  <path d="M303.775 21.1971H304.899V22.063H303.775V21.1971Z" fill="#E1E4EA"/>
  <path d="M317.264 21.1971H318.389V22.063H317.264V21.1971Z" fill="#E1E4EA"/>
  <path d="M330.754 21.1971H331.878V22.063H330.754V21.1971Z" fill="#E1E4EA"/>
  <path d="M344.244 21.1971H345.368V22.063H344.244V21.1971Z" fill="#E1E4EA"/>
  <path d="M357.734 21.1971H358.858V22.063H357.734V21.1971Z" fill="#E1E4EA"/>
  <path d="M371.224 21.1971H372.348V22.063H371.224V21.1971Z" fill="#E1E4EA"/>
  <path d="M384.713 21.1971H385.838V22.063H384.713V21.1971Z" fill="#E1E4EA"/>
  <path d="M398.203 21.1971H399.327V22.063H398.203V21.1971Z" fill="#E1E4EA"/>
  <path d="M411.693 21.1971H412.817V22.063H411.693V21.1971Z" fill="#E1E4EA"/>
  <path d="M-6.49023 31.5885H-5.36609V32.4544H-6.49023V31.5885Z" fill="#E1E4EA"/>
  <path d="M6.99955 31.5885H8.1237V32.4544H6.99955V31.5885Z" fill="#E1E4EA"/>
  <path d="M20.4893 31.5885H21.6135V32.4544H20.4893V31.5885Z" fill="#E1E4EA"/>
  <path d="M33.9791 31.5885H35.1033V32.4544H33.9791V31.5885Z" fill="#E1E4EA"/>
  <path d="M47.4689 31.5885H48.593V32.4544H47.4689V31.5885Z" fill="#E1E4EA"/>
  <path d="M60.9587 31.5885H62.0828V32.4544H60.9587V31.5885Z" fill="#E1E4EA"/>
  <path d="M74.4485 31.5885H75.5726V32.4544H74.4485V31.5885Z" fill="#E1E4EA"/>
  <path d="M87.9382 31.5885H89.0624V32.4544H87.9382V31.5885Z" fill="#E1E4EA"/>
  <path d="M101.428 31.5885H102.552V32.4544H101.428V31.5885Z" fill="#E1E4EA"/>
  <path d="M114.918 31.5885H116.042V32.4544H114.918V31.5885Z" fill="#E1E4EA"/>
  <path d="M128.408 31.5885H129.532V32.4544H128.408V31.5885Z" fill="#E1E4EA"/>
  <path d="M141.897 31.5885H143.021V32.4544H141.897V31.5885Z" fill="#E1E4EA"/>
  <path d="M155.387 31.5885H156.511V32.4544H155.387V31.5885Z" fill="#E1E4EA"/>
  <path d="M168.877 31.5885H170.001V32.4544H168.877V31.5885Z" fill="#E1E4EA"/>
  <path d="M182.367 31.5885H183.491V32.4544H182.367V31.5885Z" fill="#E1E4EA"/>
  <path d="M195.856 31.5885H196.981V32.4544H195.856V31.5885Z" fill="#E1E4EA"/>
  <path d="M209.346 31.5885H210.47V32.4544H209.346V31.5885Z" fill="#E1E4EA"/>
  <path d="M222.836 31.5885H223.96V32.4544H222.836V31.5885Z" fill="#E1E4EA"/>
  <path d="M236.326 31.5885H237.45V32.4544H236.326V31.5885Z" fill="#E1E4EA"/>
  <path d="M249.816 31.5885H250.94V32.4544H249.816V31.5885Z" fill="#E1E4EA"/>
  <path d="M263.305 31.5885H264.43V32.4544H263.305V31.5885Z" fill="#E1E4EA"/>
  <path d="M276.795 31.5885H277.919V32.4544H276.795V31.5885Z" fill="#E1E4EA"/>
  <path d="M290.285 31.5885H291.409V32.4544H290.285V31.5885Z" fill="#E1E4EA"/>
  <path d="M303.775 31.5885H304.899V32.4544H303.775V31.5885Z" fill="#E1E4EA"/>
  <path d="M317.264 31.5885H318.389V32.4544H317.264V31.5885Z" fill="#E1E4EA"/>
  <path d="M330.754 31.5885H331.878V32.4544H330.754V31.5885Z" fill="#E1E4EA"/>
  <path d="M344.244 31.5885H345.368V32.4544H344.244V31.5885Z" fill="#E1E4EA"/>
  <path d="M357.734 31.5885H358.858V32.4544H357.734V31.5885Z" fill="#E1E4EA"/>
  <path d="M371.224 31.5885H372.348V32.4544H371.224V31.5885Z" fill="#E1E4EA"/>
  <path d="M384.713 31.5885H385.838V32.4544H384.713V31.5885Z" fill="#E1E4EA"/>
  <path d="M398.203 31.5885H399.327V32.4544H398.203V31.5885Z" fill="#E1E4EA"/>
  <path d="M411.693 31.5885H412.817V32.4544H411.693V31.5885Z" fill="#E1E4EA"/>
  <path d="M-6.49023 41.9799H-5.36609V42.8458H-6.49023V41.9799Z" fill="#E1E4EA"/>
  <path d="M6.99955 41.9799H8.1237V42.8458H6.99955V41.9799Z" fill="#E1E4EA"/>
  <path d="M20.4893 41.9799H21.6135V42.8458H20.4893V41.9799Z" fill="#E1E4EA"/>
  <path d="M33.9791 41.9799H35.1033V42.8458H33.9791V41.9799Z" fill="#E1E4EA"/>
  <path d="M47.4689 41.9799H48.593V42.8458H47.4689V41.9799Z" fill="#E1E4EA"/>
  <path d="M60.9587 41.9799H62.0828V42.8458H60.9587V41.9799Z" fill="#E1E4EA"/>
  <path d="M74.4485 41.9799H75.5726V42.8458H74.4485V41.9799Z" fill="#E1E4EA"/>
  <path d="M87.9382 41.9799H89.0624V42.8458H87.9382V41.9799Z" fill="#E1E4EA"/>
  <path d="M101.428 41.9799H102.552V42.8458H101.428V41.9799Z" fill="#E1E4EA"/>
  <path d="M114.918 41.9799H116.042V42.8458H114.918V41.9799Z" fill="#E1E4EA"/>
  <path d="M128.408 41.9799H129.532V42.8458H128.408V41.9799Z" fill="#E1E4EA"/>
  <path d="M141.897 41.9799H143.021V42.8458H141.897V41.9799Z" fill="#E1E4EA"/>
  <path d="M155.387 41.9799H156.511V42.8458H155.387V41.9799Z" fill="#E1E4EA"/>
  <path d="M168.877 41.9799H170.001V42.8458H168.877V41.9799Z" fill="#E1E4EA"/>
  <path d="M182.367 41.9799H183.491V42.8458H182.367V41.9799Z" fill="#E1E4EA"/>
  <path d="M195.856 41.9799H196.981V42.8458H195.856V41.9799Z" fill="#E1E4EA"/>
  <path d="M209.346 41.9799H210.47V42.8458H209.346V41.9799Z" fill="#E1E4EA"/>
  <path d="M222.836 41.9799H223.96V42.8458H222.836V41.9799Z" fill="#E1E4EA"/>
  <path d="M236.326 41.9799H237.45V42.8458H236.326V41.9799Z" fill="#E1E4EA"/>
  <path d="M249.816 41.9799H250.94V42.8458H249.816V41.9799Z" fill="#E1E4EA"/>
  <path d="M263.305 41.9799H264.43V42.8458H263.305V41.9799Z" fill="#E1E4EA"/>
  <path d="M276.795 41.9799H277.919V42.8458H276.795V41.9799Z" fill="#E1E4EA"/>
  <path d="M290.285 41.9799H291.409V42.8458H290.285V41.9799Z" fill="#E1E4EA"/>
  <path d="M303.775 41.9799H304.899V42.8458H303.775V41.9799Z" fill="#E1E4EA"/>
  <path d="M317.264 41.9799H318.389V42.8458H317.264V41.9799Z" fill="#E1E4EA"/>
  <path d="M330.754 41.9799H331.878V42.8458H330.754V41.9799Z" fill="#E1E4EA"/>
  <path d="M344.244 41.9799H345.368V42.8458H344.244V41.9799Z" fill="#E1E4EA"/>
  <path d="M357.734 41.9799H358.858V42.8458H357.734V41.9799Z" fill="#E1E4EA"/>
  <path d="M371.224 41.9799H372.348V42.8458H371.224V41.9799Z" fill="#E1E4EA"/>
  <path d="M384.713 41.9799H385.838V42.8458H384.713V41.9799Z" fill="#E1E4EA"/>
  <path d="M398.203 41.9799H399.327V42.8458H398.203V41.9799Z" fill="#E1E4EA"/>
  <path d="M411.693 41.9799H412.817V42.8458H411.693V41.9799Z" fill="#E1E4EA"/>
  <path d="M-6.49023 52.3713H-5.36609V53.2373H-6.49023V52.3713Z" fill="#E1E4EA"/>
  <path d="M6.99955 52.3713H8.1237V53.2373H6.99955V52.3713Z" fill="#E1E4EA"/>
  <path d="M20.4893 52.3713H21.6135V53.2373H20.4893V52.3713Z" fill="#E1E4EA"/>
  <path d="M33.9791 52.3713H35.1033V53.2373H33.9791V52.3713Z" fill="#E1E4EA"/>
  <path d="M47.4689 52.3713H48.593V53.2373H47.4689V52.3713Z" fill="#E1E4EA"/>
  <path d="M60.9587 52.3713H62.0828V53.2373H60.9587V52.3713Z" fill="#E1E4EA"/>
  <path d="M74.4485 52.3713H75.5726V53.2373H74.4485V52.3713Z" fill="#E1E4EA"/>
  <path d="M87.9382 52.3713H89.0624V53.2373H87.9382V52.3713Z" fill="#E1E4EA"/>
  <path d="M101.428 52.3713H102.552V53.2373H101.428V52.3713Z" fill="#E1E4EA"/>
  <path d="M114.918 52.3713H116.042V53.2373H114.918V52.3713Z" fill="#E1E4EA"/>
  <path d="M128.408 52.3713H129.532V53.2373H128.408V52.3713Z" fill="#E1E4EA"/>
  <path d="M141.897 52.3713H143.021V53.2373H141.897V52.3713Z" fill="#E1E4EA"/>
  <path d="M155.387 52.3713H156.511V53.2373H155.387V52.3713Z" fill="#E1E4EA"/>
  <path d="M168.877 52.3713H170.001V53.2373H168.877V52.3713Z" fill="#E1E4EA"/>
  <path d="M182.367 52.3713H183.491V53.2373H182.367V52.3713Z" fill="#E1E4EA"/>
  <path d="M195.856 52.3713H196.981V53.2373H195.856V52.3713Z" fill="#E1E4EA"/>
  <path d="M209.346 52.3713H210.47V53.2373H209.346V52.3713Z" fill="#E1E4EA"/>
  <path d="M222.836 52.3713H223.96V53.2373H222.836V52.3713Z" fill="#E1E4EA"/>
  <path d="M236.326 52.3713H237.45V53.2373H236.326V52.3713Z" fill="#E1E4EA"/>
  <path d="M249.816 52.3713H250.94V53.2373H249.816V52.3713Z" fill="#E1E4EA"/>
  <path d="M263.305 52.3713H264.43V53.2373H263.305V52.3713Z" fill="#E1E4EA"/>
  <path d="M276.795 52.3713H277.919V53.2373H276.795V52.3713Z" fill="#E1E4EA"/>
  <path d="M290.285 52.3713H291.409V53.2373H290.285V52.3713Z" fill="#E1E4EA"/>
  <path d="M303.775 52.3713H304.899V53.2373H303.775V52.3713Z" fill="#E1E4EA"/>
  <path d="M317.264 52.3713H318.389V53.2373H317.264V52.3713Z" fill="#E1E4EA"/>
  <path d="M330.754 52.3713H331.878V53.2373H330.754V52.3713Z" fill="#E1E4EA"/>
  <path d="M344.244 52.3713H345.368V53.2373H344.244V52.3713Z" fill="#E1E4EA"/>
  <path d="M357.734 52.3713H358.858V53.2373H357.734V52.3713Z" fill="#E1E4EA"/>
  <path d="M371.224 52.3713H372.348V53.2373H371.224V52.3713Z" fill="#E1E4EA"/>
  <path d="M384.713 52.3713H385.838V53.2373H384.713V52.3713Z" fill="#E1E4EA"/>
  <path d="M398.203 52.3713H399.327V53.2373H398.203V52.3713Z" fill="#E1E4EA"/>
  <path d="M411.693 52.3713H412.817V53.2373H411.693V52.3713Z" fill="#E1E4EA"/>
  <path d="M-6.49023 62.7627H-5.36609V63.6287H-6.49023V62.7627Z" fill="#E1E4EA"/>
  <path d="M6.99955 62.7627H8.1237V63.6287H6.99955V62.7627Z" fill="#E1E4EA"/>
  <path d="M20.4893 62.7627H21.6135V63.6287H20.4893V62.7627Z" fill="#E1E4EA"/>
  <path d="M33.9791 62.7627H35.1033V63.6287H33.9791V62.7627Z" fill="#E1E4EA"/>
  <path d="M47.4689 62.7627H48.593V63.6287H47.4689V62.7627Z" fill="#E1E4EA"/>
  <path d="M60.9587 62.7627H62.0828V63.6287H60.9587V62.7627Z" fill="#E1E4EA"/>
  <path d="M74.4485 62.7627H75.5726V63.6287H74.4485V62.7627Z" fill="#E1E4EA"/>
  <path d="M87.9382 62.7627H89.0624V63.6287H87.9382V62.7627Z" fill="#E1E4EA"/>
  <path d="M101.428 62.7627H102.552V63.6287H101.428V62.7627Z" fill="#E1E4EA"/>
  <path d="M114.918 62.7627H116.042V63.6287H114.918V62.7627Z" fill="#E1E4EA"/>
  <path d="M128.408 62.7627H129.532V63.6287H128.408V62.7627Z" fill="#E1E4EA"/>
  <path d="M141.897 62.7627H143.021V63.6287H141.897V62.7627Z" fill="#E1E4EA"/>
  <path d="M155.387 62.7627H156.511V63.6287H155.387V62.7627Z" fill="#E1E4EA"/>
  <path d="M168.877 62.7627H170.001V63.6287H168.877V62.7627Z" fill="#E1E4EA"/>
  <path d="M182.367 62.7627H183.491V63.6287H182.367V62.7627Z" fill="#E1E4EA"/>
  <path d="M195.856 62.7627H196.981V63.6287H195.856V62.7627Z" fill="#E1E4EA"/>
  <path d="M209.346 62.7627H210.47V63.6287H209.346V62.7627Z" fill="#E1E4EA"/>
  <path d="M222.836 62.7627H223.96V63.6287H222.836V62.7627Z" fill="#E1E4EA"/>
  <path d="M236.326 62.7627H237.45V63.6287H236.326V62.7627Z" fill="#E1E4EA"/>
  <path d="M249.816 62.7627H250.94V63.6287H249.816V62.7627Z" fill="#E1E4EA"/>
  <path d="M263.305 62.7627H264.43V63.6287H263.305V62.7627Z" fill="#E1E4EA"/>
  <path d="M276.795 62.7627H277.919V63.6287H276.795V62.7627Z" fill="#E1E4EA"/>
  <path d="M290.285 62.7627H291.409V63.6287H290.285V62.7627Z" fill="#E1E4EA"/>
  <path d="M303.775 62.7627H304.899V63.6287H303.775V62.7627Z" fill="#E1E4EA"/>
  <path d="M317.264 62.7627H318.389V63.6287H317.264V62.7627Z" fill="#E1E4EA"/>
  <path d="M330.754 62.7627H331.878V63.6287H330.754V62.7627Z" fill="#E1E4EA"/>
  <path d="M344.244 62.7627H345.368V63.6287H344.244V62.7627Z" fill="#E1E4EA"/>
  <path d="M357.734 62.7627H358.858V63.6287H357.734V62.7627Z" fill="#E1E4EA"/>
  <path d="M371.224 62.7627H372.348V63.6287H371.224V62.7627Z" fill="#E1E4EA"/>
  <path d="M384.713 62.7627H385.838V63.6287H384.713V62.7627Z" fill="#E1E4EA"/>
  <path d="M398.203 62.7627H399.327V63.6287H398.203V62.7627Z" fill="#E1E4EA"/>
  <path d="M411.693 62.7627H412.817V63.6287H411.693V62.7627Z" fill="#E1E4EA"/>
  <path d="M-6.49023 73.1542H-5.36609V74.0201H-6.49023V73.1542Z" fill="#E1E4EA"/>
  <path d="M6.99955 73.1542H8.1237V74.0201H6.99955V73.1542Z" fill="#E1E4EA"/>
  <path d="M20.4893 73.1542H21.6135V74.0201H20.4893V73.1542Z" fill="#E1E4EA"/>
  <path d="M33.9791 73.1542H35.1033V74.0201H33.9791V73.1542Z" fill="#E1E4EA"/>
  <path d="M47.4689 73.1542H48.593V74.0201H47.4689V73.1542Z" fill="#E1E4EA"/>
  <path d="M60.9587 73.1542H62.0828V74.0201H60.9587V73.1542Z" fill="#E1E4EA"/>
  <path d="M74.4485 73.1542H75.5726V74.0201H74.4485V73.1542Z" fill="#E1E4EA"/>
  <path d="M87.9382 73.1542H89.0624V74.0201H87.9382V73.1542Z" fill="#E1E4EA"/>
  <path d="M101.428 73.1542H102.552V74.0201H101.428V73.1542Z" fill="#E1E4EA"/>
  <path d="M114.918 73.1542H116.042V74.0201H114.918V73.1542Z" fill="#E1E4EA"/>
  <path d="M128.408 73.1542H129.532V74.0201H128.408V73.1542Z" fill="#E1E4EA"/>
  <path d="M141.897 73.1542H143.021V74.0201H141.897V73.1542Z" fill="#E1E4EA"/>
  <path d="M155.387 73.1542H156.511V74.0201H155.387V73.1542Z" fill="#E1E4EA"/>
  <path d="M168.877 73.1542H170.001V74.0201H168.877V73.1542Z" fill="#E1E4EA"/>
  <path d="M182.367 73.1542H183.491V74.0201H182.367V73.1542Z" fill="#E1E4EA"/>
  <path d="M195.856 73.1542H196.981V74.0201H195.856V73.1542Z" fill="#E1E4EA"/>
  <path d="M209.346 73.1542H210.47V74.0201H209.346V73.1542Z" fill="#E1E4EA"/>
  <path d="M222.836 73.1542H223.96V74.0201H222.836V73.1542Z" fill="#E1E4EA"/>
  <path d="M236.326 73.1542H237.45V74.0201H236.326V73.1542Z" fill="#E1E4EA"/>
  <path d="M249.816 73.1542H250.94V74.0201H249.816V73.1542Z" fill="#E1E4EA"/>
  <path d="M263.305 73.1542H264.43V74.0201H263.305V73.1542Z" fill="#E1E4EA"/>
  <path d="M276.795 73.1542H277.919V74.0201H276.795V73.1542Z" fill="#E1E4EA"/>
  <path d="M290.285 73.1542H291.409V74.0201H290.285V73.1542Z" fill="#E1E4EA"/>
  <path d="M303.775 73.1542H304.899V74.0201H303.775V73.1542Z" fill="#E1E4EA"/>
  <path d="M317.264 73.1542H318.389V74.0201H317.264V73.1542Z" fill="#E1E4EA"/>
  <path d="M330.754 73.1542H331.878V74.0201H330.754V73.1542Z" fill="#E1E4EA"/>
  <path d="M344.244 73.1542H345.368V74.0201H344.244V73.1542Z" fill="#E1E4EA"/>
  <path d="M357.734 73.1542H358.858V74.0201H357.734V73.1542Z" fill="#E1E4EA"/>
  <path d="M371.224 73.1542H372.348V74.0201H371.224V73.1542Z" fill="#E1E4EA"/>
  <path d="M384.713 73.1542H385.838V74.0201H384.713V73.1542Z" fill="#E1E4EA"/>
  <path d="M398.203 73.1542H399.327V74.0201H398.203V73.1542Z" fill="#E1E4EA"/>
  <path d="M411.693 73.1542H412.817V74.0201H411.693V73.1542Z" fill="#E1E4EA"/>
  <path d="M-6.49023 83.5456H-5.36609V84.4115H-6.49023V83.5456Z" fill="#E1E4EA"/>
  <path d="M6.99955 83.5456H8.1237V84.4115H6.99955V83.5456Z" fill="#E1E4EA"/>
  <path d="M20.4893 83.5456H21.6135V84.4115H20.4893V83.5456Z" fill="#E1E4EA"/>
  <path d="M33.9791 83.5456H35.1033V84.4115H33.9791V83.5456Z" fill="#E1E4EA"/>
  <path d="M47.4689 83.5456H48.593V84.4115H47.4689V83.5456Z" fill="#E1E4EA"/>
  <path d="M60.9587 83.5456H62.0828V84.4115H60.9587V83.5456Z" fill="#E1E4EA"/>
  <path d="M74.4485 83.5456H75.5726V84.4115H74.4485V83.5456Z" fill="#E1E4EA"/>
  <path d="M87.9382 83.5456H89.0624V84.4115H87.9382V83.5456Z" fill="#E1E4EA"/>
  <path d="M101.428 83.5456H102.552V84.4115H101.428V83.5456Z" fill="#E1E4EA"/>
  <path d="M114.918 83.5456H116.042V84.4115H114.918V83.5456Z" fill="#E1E4EA"/>
  <path d="M128.408 83.5456H129.532V84.4115H128.408V83.5456Z" fill="#E1E4EA"/>
  <path d="M141.897 83.5456H143.021V84.4115H141.897V83.5456Z" fill="#E1E4EA"/>
  <path d="M155.387 83.5456H156.511V84.4115H155.387V83.5456Z" fill="#E1E4EA"/>
  <path d="M168.877 83.5456H170.001V84.4115H168.877V83.5456Z" fill="#E1E4EA"/>
  <path d="M182.367 83.5456H183.491V84.4115H182.367V83.5456Z" fill="#E1E4EA"/>
  <path d="M195.856 83.5456H196.981V84.4115H195.856V83.5456Z" fill="#E1E4EA"/>
  <path d="M209.346 83.5456H210.47V84.4115H209.346V83.5456Z" fill="#E1E4EA"/>
  <path d="M222.836 83.5456H223.96V84.4115H222.836V83.5456Z" fill="#E1E4EA"/>
  <path d="M236.326 83.5456H237.45V84.4115H236.326V83.5456Z" fill="#E1E4EA"/>
  <path d="M249.816 83.5456H250.94V84.4115H249.816V83.5456Z" fill="#E1E4EA"/>
  <path d="M263.305 83.5456H264.43V84.4115H263.305V83.5456Z" fill="#E1E4EA"/>
  <path d="M276.795 83.5456H277.919V84.4115H276.795V83.5456Z" fill="#E1E4EA"/>
  <path d="M290.285 83.5456H291.409V84.4115H290.285V83.5456Z" fill="#E1E4EA"/>
  <path d="M303.775 83.5456H304.899V84.4115H303.775V83.5456Z" fill="#E1E4EA"/>
  <path d="M317.264 83.5456H318.389V84.4115H317.264V83.5456Z" fill="#E1E4EA"/>
  <path d="M330.754 83.5456H331.878V84.4115H330.754V83.5456Z" fill="#E1E4EA"/>
  <path d="M344.244 83.5456H345.368V84.4115H344.244V83.5456Z" fill="#E1E4EA"/>
  <path d="M357.734 83.5456H358.858V84.4115H357.734V83.5456Z" fill="#E1E4EA"/>
  <path d="M371.224 83.5456H372.348V84.4115H371.224V83.5456Z" fill="#E1E4EA"/>
  <path d="M384.713 83.5456H385.838V84.4115H384.713V83.5456Z" fill="#E1E4EA"/>
  <path d="M398.203 83.5456H399.327V84.4115H398.203V83.5456Z" fill="#E1E4EA"/>
  <path d="M411.693 83.5456H412.817V84.4115H411.693V83.5456Z" fill="#E1E4EA"/>
  <path d="M-6.49023 93.937H-5.36609V94.8029H-6.49023V93.937Z" fill="#E1E4EA"/>
  <path d="M6.99955 93.937H8.1237V94.8029H6.99955V93.937Z" fill="#E1E4EA"/>
  <path d="M20.4893 93.937H21.6135V94.8029H20.4893V93.937Z" fill="#E1E4EA"/>
  <path d="M33.9791 93.937H35.1033V94.8029H33.9791V93.937Z" fill="#E1E4EA"/>
  <path d="M47.4689 93.937H48.593V94.8029H47.4689V93.937Z" fill="#E1E4EA"/>
  <path d="M60.9587 93.937H62.0828V94.8029H60.9587V93.937Z" fill="#E1E4EA"/>
  <path d="M74.4485 93.937H75.5726V94.8029H74.4485V93.937Z" fill="#E1E4EA"/>
  <path d="M87.9382 93.937H89.0624V94.8029H87.9382V93.937Z" fill="#E1E4EA"/>
  <path d="M101.428 93.937H102.552V94.8029H101.428V93.937Z" fill="#E1E4EA"/>
  <path d="M114.918 93.937H116.042V94.8029H114.918V93.937Z" fill="#E1E4EA"/>
  <path d="M128.408 93.937H129.532V94.8029H128.408V93.937Z" fill="#E1E4EA"/>
  <path d="M141.897 93.937H143.021V94.8029H141.897V93.937Z" fill="#E1E4EA"/>
  <path d="M155.387 93.937H156.511V94.8029H155.387V93.937Z" fill="#E1E4EA"/>
  <path d="M168.877 93.937H170.001V94.8029H168.877V93.937Z" fill="#E1E4EA"/>
  <path d="M182.367 93.937H183.491V94.8029H182.367V93.937Z" fill="#E1E4EA"/>
  <path d="M195.856 93.937H196.981V94.8029H195.856V93.937Z" fill="#E1E4EA"/>
  <path d="M209.346 93.937H210.47V94.8029H209.346V93.937Z" fill="#E1E4EA"/>
  <path d="M222.836 93.937H223.96V94.8029H222.836V93.937Z" fill="#E1E4EA"/>
  <path d="M236.326 93.937H237.45V94.8029H236.326V93.937Z" fill="#E1E4EA"/>
  <path d="M249.816 93.937H250.94V94.8029H249.816V93.937Z" fill="#E1E4EA"/>
  <path d="M263.305 93.937H264.43V94.8029H263.305V93.937Z" fill="#E1E4EA"/>
  <path d="M276.795 93.937H277.919V94.8029H276.795V93.937Z" fill="#E1E4EA"/>
  <path d="M290.285 93.937H291.409V94.8029H290.285V93.937Z" fill="#E1E4EA"/>
  <path d="M303.775 93.937H304.899V94.8029H303.775V93.937Z" fill="#E1E4EA"/>
  <path d="M317.264 93.937H318.389V94.8029H317.264V93.937Z" fill="#E1E4EA"/>
  <path d="M330.754 93.937H331.878V94.8029H330.754V93.937Z" fill="#E1E4EA"/>
  <path d="M344.244 93.937H345.368V94.8029H344.244V93.937Z" fill="#E1E4EA"/>
  <path d="M357.734 93.937H358.858V94.8029H357.734V93.937Z" fill="#E1E4EA"/>
  <path d="M371.224 93.937H372.348V94.8029H371.224V93.937Z" fill="#E1E4EA"/>
  <path d="M384.713 93.937H385.838V94.8029H384.713V93.937Z" fill="#E1E4EA"/>
  <path d="M398.203 93.937H399.327V94.8029H398.203V93.937Z" fill="#E1E4EA"/>
  <path d="M411.693 93.937H412.817V94.8029H411.693V93.937Z" fill="#E1E4EA"/>
  <path d="M-6.49023 104.328H-5.36609V105.194H-6.49023V104.328Z" fill="#E1E4EA"/>
  <path d="M6.99955 104.328H8.1237V105.194H6.99955V104.328Z" fill="#E1E4EA"/>
  <path d="M20.4893 104.328H21.6135V105.194H20.4893V104.328Z" fill="#E1E4EA"/>
  <path d="M33.9791 104.328H35.1033V105.194H33.9791V104.328Z" fill="#E1E4EA"/>
  <path d="M47.4689 104.328H48.593V105.194H47.4689V104.328Z" fill="#E1E4EA"/>
  <path d="M60.9587 104.328H62.0828V105.194H60.9587V104.328Z" fill="#E1E4EA"/>
  <path d="M74.4485 104.328H75.5726V105.194H74.4485V104.328Z" fill="#E1E4EA"/>
  <path d="M87.9382 104.328H89.0624V105.194H87.9382V104.328Z" fill="#E1E4EA"/>
  <path d="M101.428 104.328H102.552V105.194H101.428V104.328Z" fill="#E1E4EA"/>
  <path d="M114.918 104.328H116.042V105.194H114.918V104.328Z" fill="#E1E4EA"/>
  <path d="M128.408 104.328H129.532V105.194H128.408V104.328Z" fill="#E1E4EA"/>
  <path d="M141.897 104.328H143.021V105.194H141.897V104.328Z" fill="#E1E4EA"/>
  <path d="M155.387 104.328H156.511V105.194H155.387V104.328Z" fill="#E1E4EA"/>
  <path d="M168.877 104.328H170.001V105.194H168.877V104.328Z" fill="#E1E4EA"/>
  <path d="M182.367 104.328H183.491V105.194H182.367V104.328Z" fill="#E1E4EA"/>
  <path d="M195.856 104.328H196.981V105.194H195.856V104.328Z" fill="#E1E4EA"/>
  <path d="M209.346 104.328H210.47V105.194H209.346V104.328Z" fill="#E1E4EA"/>
  <path d="M222.836 104.328H223.96V105.194H222.836V104.328Z" fill="#E1E4EA"/>
  <path d="M236.326 104.328H237.45V105.194H236.326V104.328Z" fill="#E1E4EA"/>
  <path d="M249.816 104.328H250.94V105.194H249.816V104.328Z" fill="#E1E4EA"/>
  <path d="M263.305 104.328H264.43V105.194H263.305V104.328Z" fill="#E1E4EA"/>
  <path d="M276.795 104.328H277.919V105.194H276.795V104.328Z" fill="#E1E4EA"/>
  <path d="M290.285 104.328H291.409V105.194H290.285V104.328Z" fill="#E1E4EA"/>
  <path d="M303.775 104.328H304.899V105.194H303.775V104.328Z" fill="#E1E4EA"/>
  <path d="M317.264 104.328H318.389V105.194H317.264V104.328Z" fill="#E1E4EA"/>
  <path d="M330.754 104.328H331.878V105.194H330.754V104.328Z" fill="#E1E4EA"/>
  <path d="M344.244 104.328H345.368V105.194H344.244V104.328Z" fill="#E1E4EA"/>
  <path d="M357.734 104.328H358.858V105.194H357.734V104.328Z" fill="#E1E4EA"/>
  <path d="M371.224 104.328H372.348V105.194H371.224V104.328Z" fill="#E1E4EA"/>
  <path d="M384.713 104.328H385.838V105.194H384.713V104.328Z" fill="#E1E4EA"/>
  <path d="M398.203 104.328H399.327V105.194H398.203V104.328Z" fill="#E1E4EA"/>
  <path d="M411.693 104.328H412.817V105.194H411.693V104.328Z" fill="#E1E4EA"/>
  <path d="M-6.49023 114.72H-5.36609V115.586H-6.49023V114.72Z" fill="#E1E4EA"/>
  <path d="M6.99955 114.72H8.1237V115.586H6.99955V114.72Z" fill="#E1E4EA"/>
  <path d="M20.4893 114.72H21.6135V115.586H20.4893V114.72Z" fill="#E1E4EA"/>
  <path d="M33.9791 114.72H35.1033V115.586H33.9791V114.72Z" fill="#E1E4EA"/>
  <path d="M47.4689 114.72H48.593V115.586H47.4689V114.72Z" fill="#E1E4EA"/>
  <path d="M60.9587 114.72H62.0828V115.586H60.9587V114.72Z" fill="#E1E4EA"/>
  <path d="M74.4485 114.72H75.5726V115.586H74.4485V114.72Z" fill="#E1E4EA"/>
  <path d="M87.9382 114.72H89.0624V115.586H87.9382V114.72Z" fill="#E1E4EA"/>
  <path d="M101.428 114.72H102.552V115.586H101.428V114.72Z" fill="#E1E4EA"/>
  <path d="M114.918 114.72H116.042V115.586H114.918V114.72Z" fill="#E1E4EA"/>
  <path d="M128.408 114.72H129.532V115.586H128.408V114.72Z" fill="#E1E4EA"/>
  <path d="M141.897 114.72H143.021V115.586H141.897V114.72Z" fill="#E1E4EA"/>
  <path d="M155.387 114.72H156.511V115.586H155.387V114.72Z" fill="#E1E4EA"/>
  <path d="M168.877 114.72H170.001V115.586H168.877V114.72Z" fill="#E1E4EA"/>
  <path d="M182.367 114.72H183.491V115.586H182.367V114.72Z" fill="#E1E4EA"/>
  <path d="M195.856 114.72H196.981V115.586H195.856V114.72Z" fill="#E1E4EA"/>
  <path d="M209.346 114.72H210.47V115.586H209.346V114.72Z" fill="#E1E4EA"/>
  <path d="M222.836 114.72H223.96V115.586H222.836V114.72Z" fill="#E1E4EA"/>
  <path d="M236.326 114.72H237.45V115.586H236.326V114.72Z" fill="#E1E4EA"/>
  <path d="M249.816 114.72H250.94V115.586H249.816V114.72Z" fill="#E1E4EA"/>
  <path d="M263.305 114.72H264.43V115.586H263.305V114.72Z" fill="#E1E4EA"/>
  <path d="M276.795 114.72H277.919V115.586H276.795V114.72Z" fill="#E1E4EA"/>
  <path d="M290.285 114.72H291.409V115.586H290.285V114.72Z" fill="#E1E4EA"/>
  <path d="M303.775 114.72H304.899V115.586H303.775V114.72Z" fill="#E1E4EA"/>
  <path d="M317.264 114.72H318.389V115.586H317.264V114.72Z" fill="#E1E4EA"/>
  <path d="M330.754 114.72H331.878V115.586H330.754V114.72Z" fill="#E1E4EA"/>
  <path d="M344.244 114.72H345.368V115.586H344.244V114.72Z" fill="#E1E4EA"/>
  <path d="M357.734 114.72H358.858V115.586H357.734V114.72Z" fill="#E1E4EA"/>
  <path d="M371.224 114.72H372.348V115.586H371.224V114.72Z" fill="#E1E4EA"/>
  <path d="M384.713 114.72H385.838V115.586H384.713V114.72Z" fill="#E1E4EA"/>
  <path d="M398.203 114.72H399.327V115.586H398.203V114.72Z" fill="#E1E4EA"/>
  <path d="M411.693 114.72H412.817V115.586H411.693V114.72Z" fill="#E1E4EA"/>
</svg>
